<?xml version="1.0" standalone="no"?><svg xmlns="http://www.w3.org/2000/svg" viewBox="0 0 1440 320"><path fill=" #f0fff2" fill-opacity="1" d="M0,256L34.3,250.7C68.6,245,137,235,206,224C274.3,213,343,203,411,186.7C480,171,549,149,617,170.7C685.7,192,754,256,823,266.7C891.4,277,960,235,1029,224C1097.1,213,1166,235,1234,224C1302.9,213,1371,171,1406,149.3L1440,128L1440,320L1405.7,320C1371.4,320,1303,320,1234,320C1165.7,320,1097,320,1029,320C960,320,891,320,823,320C754.3,320,686,320,617,320C548.6,320,480,320,411,320C342.9,320,274,320,206,320C137.1,320,69,320,34,320L0,320Z"></path></svg>